@startuml
'https://plantuml.com/class-diagram

hide circle
skinparam classAttributeIconSize 0

title US018 - As PO/SM/TeamMember, I want to consult the Product Backlog, i. e. to get the list of user stories sorted by priority

class ProductBacklogSortUI {

}

class ProductBacklogSortController {
    +getProjectListByUserEmail(String email)
    +getProject(String code)
    +getUsSortedByPriority()
}

class Company {
    +getProjectStore()
}

class ProjectStore {
+getProjectListByUserEmail(String email)
+getProjectByCode(String code)
}

class Project {
-code : String
-productBacklog : ProductBacklog
+getProductBacklog()
}

class ProductBacklog {
-userStoryList : List<UserStory>
+getUsSortedByPriority()
}

class UserStory {
- userStoryStatus : UserStoryStatus
- priority : int
- description : String
- id_UserStory : int
- parentUserStory : UserStory
}

ProductBacklogSortUI ..> ProductBacklogSortController

ProductBacklogSortController ..> Company
ProductBacklogSortController ..> ProjectStore
ProductBacklogSortController ..> Project
ProductBacklogSortController ..> ProductBacklog

Company "1" o-- "1" ProjectStore: has
ProjectStore "1" *-- "0..*" Project: has
Project "1" -> "1" ProductBacklog
ProductBacklog "1" -> "0..*" UserStory
@enduml